<?xml version="1.0" encoding="UTF-8"?>
<svg version="1.1" viewBox="0 0 1080 1468" width="270" height="367" xmlns="http://www.w3.org/2000/svg">
<path transform="translate(477,54)" d="m0 0 5 1 16 10 16 13 15 13 21 21 9 11 10 13 12 19 9 19 7 20 3 22v28l-2 18-4 15-5 15-8 19-9 14-6 9 4 19 5 15v2l5-5 10-13 13-18 14-19 13-18 11-18-2-5-7-11-3-9-1-11 2-11 5-10 5-6 11-7 7-2h15l11 4 11 8 7 11 2 9v9l-3 12-7 11-7 6-13 5-17 2-5 3-8 11-10 15-9 13-11 18-7 10-13 20-12 18v17l2 63 3 50 1 22 5-3 10-13 13-16 11-14 13-15 7-8 3-4h2l2-4 16-17 8-8 7-5v-30l2-18 8-29 9-20 10-16 9-11 11-12 11-10 10-8 11-8 23-15 18-10 23-11 28-10 27-7 9-1 1 2v18l-2 19-7 34-8 28-7 20-11 24-8 14-12 17-10 11-11 9-15 11-16 8-14 5-20 5-7 1h-53l-7 8-11 12-10 11-9 11-9 10-10 14-8 11-10 16-12 20-8 14-7 13v34l2 50v53l5-5 8-9 11-14 11-13 11-14 14-15 9-11 11-12 9-11 7-10 7-16 10-26 10-24 1-1 8 1 1 4-6 25-6 15 8-5 16-13 14-11 10-8-1-9-3-14 1-14 4-10 6-8 8-7 10-4h19l11 4 10 9 5 9 3 12-1 12-6 12-5 6-8 6-10 4-13 1-13-2-7-1-10 8-16 13-10 9-11 9-12 11-6 5-14 21-14 20-7 9-9 12-8 11-10 14-16 24-9 15-12 21-9 15-1 4-2 54 5-3 9-15 9-13 20-30 11-14 11-13 9-11 11-12 20-20 14-10 14-8 15-7 27-8 19-5 25-8 8-4 3-16 8-20 9-14 8-10 8-7 13-10 14-8 19-7 30-5h30l9 2-1 11-6 20-8 18-7 14-12 17-12 14-10 8-14 9-14 6-8 2-9 1h-21l-18-2-12-3h-4l-29 12-21 9-19 9-17 10-11 6-16 9-11 8-14 14-13 17-10 14-12 19-15 25-10 19-10 22-12 31-3 14v39l1 55 2 61 4 55 5 59 7 55 5 21 8 26 11 31 6 11 35 4 46 7 40 9 31 9 22 8 18 8 16 9 10 8 6 7 2 4v7l-4 6-5 5-9 6-18 8-24 7-20 5-47 8-51 6-44 3-61 2h-47l-60-2-42-3-59-7-47-9-29-8-21-9-10-6-7-8-2-4 1-9 6-8 14-11 18-10 26-10 22-7 31-8 34-7 45-7 37-3 3-11 9-43 8-63 4-74 4-73 3-87 3-51 2-28 1-26-12-17-8-11-10-13-14-19-11-12-14-10-17-12-37-24-19-12-18-13-16-12-14-12-11-9-7-6-11-4-18-4-29-4-20-4-22-3-3-2 1-7 15 1 56 6h9l-13-19-12-18-3-5 2-6 5 1 11 12 9 11 12 14 12 13 7 8 8 7 13 10 15 10 24 14 42 24 23 12 6 2-2-12-12-41-14-41v-2l-23 1-10-2-9-6-6-7-5-10-1-4v-17l5-12 7-8 10-6 10-3h9l13 4 10 7 7 9 4 11v14l-5 14-4 8 2 10 14 36 15 40 11 30 7 9 27 27 11 9 5 3 1-18 6-54 2-43 1-29v-45l-12-24-13-23-16-27-18-27-13-18-10-14-8-11-10-10-8-7-12-10-12-7-10 1-20 5-12 1-15-1-24-6-12-5-14-7-10-7-10-8-6-5-7-8-10-12-12-19-11-23-8-21-8-29-6-30-2-21v-33l5-1 23 6 21 9 15 8 15 10 14 11 13 11 13 12 13 13 18 22 14 19 11 17 9 15 3 6 9-3 13-3h9l12 3 10 6 8 9 4 11v16l-3 10-7 11-9 9-5 2 10 13 10 10 7 8 12 14 11 13 11 14 14 18 24 32 5 5 2-16 2-59v-106l-2-28-4-17-2-3-12-2-18-8-14-8-11-8-15-14-7-7-11-14-9-14-8-16-5-13-5-20-2-14v-31l3-24 8-32 9-25 9-20 12-21z" fill="#2D561A"/>
<path transform="translate(497,1322)" d="m0 0 2 1-5 13-10 23-4 6-1 4 27-3 10-2 28-2h48l26 2 16 3 30 4h5l-3-7-5-7-8-16-7-15v-3l19 1 50 7 26 5 30 7 27 8 22 8 18 8 16 9 10 8 6 7 2 4v7l-4 6-5 5-9 6-18 8-24 7-20 5-47 8-51 6-44 3-61 2h-47l-60-2-42-3-59-7-47-9-29-8-21-9-10-6-7-8-2-4 1-9 6-8 14-11 18-10 26-10 22-7 31-8 34-7 45-7z" fill="#4F9A0B"/>
<path transform="translate(477,54)" d="m0 0 5 1 16 10 16 13 15 13 21 21 9 11 10 13 12 19 9 19 7 20 3 22v28l-2 18-4 15-5 15-8 19-9 14-6 9-4-4-3-11-3-6-4-14-3-9-10-38-3-9-6-21-4-15-3-9-6-19-3-10-2-4-2-10-3-6 1 9 9 34 4 16 10 38 2 10 2 6 6 23 4 20 6 28 2 11-1 1h-9l-21-9-14-8-11-8-15-14-7-7-11-14-9-14-8-16-5-13-5-20-2-14v-31l3-24 8-32 9-25 9-20 12-21z" fill="#4F9A0B"/>
<path transform="translate(225,218)" d="m0 0 8 1 19 5 21 9 15 8 15 10 14 11 13 11 13 12 13 13 18 22 14 19 11 17 9 15 3 6 9-3 13-3h9l12 3 10 6 8 9 4 11v16l-3 10-7 11-9 9-3 2h-31l-7-1-25 6-12 1-15-1-24-6-12-5-14-7-10-7-10-8-6-5-7-8-10-12-12-19-11-23-8-21-8-29-6-30-2-21v-33z" fill="#4F9A0B"/>
<path transform="translate(891,221)" d="m0 0h3l1 2v18l-2 19-7 34-8 28-7 20-11 24-8 14-12 17-10 11-11 9-15 11-16 8-14 5-20 5-7 1h-43l-9-1 5-5 3-1 2-4h2l2-4 9-10 3-4h2v-2h2l2-4 9-10 9-11 9-10 9-11 8-11h2l2-4 10-14 12-16 14-19 5-8v-3l-4 2-2 3h-2l-2 4-7 9-5 7h-2l-2 4-9 11-8 10-18 22-10 11-7 8-4 5h-2l-2 4-25 25-8 7-8 6h-2l-1 2-1-7v-21l2-18 8-29 9-20 10-16 9-11 11-12 11-10 10-8 11-8 23-15 18-10 23-11 28-10 27-7z" fill="#4F9A0C"/>
<path transform="translate(937,554)" d="m0 0h30l9 2-1 11-6 20-8 18-7 14-12 17-12 14-10 8-14 9-14 6-8 2-9 1h-21l-18-2-12-3h-4l-29 12-21 9-19 9-17 10-11 6-16 9-11 8-18 18v-4h2l2-7-3-7-5-2 3-5 26-26 14-10 14-8 15-7 27-8 19-5 25-8 8-4 3-16 8-20 9-14 8-10 8-7 13-10 14-8 19-7z" fill="#509A0C"/>
<path transform="translate(150,388)" d="m0 0h18l20 2 27 5 21 8 14 8 11 9 12 12 11 17 8 19 3 13 1 13 4 5v2l-12-1-13 4-16 3h-23l-24-4-11-4-13-7-9-7-10-9-8-8-13-17-9-16-8-19-5-19v-5l13-3z" fill="#509A0C"/>
<path transform="translate(378,327)" d="m0 0 5 5 9 13 12 19 7 13 9-3 13-3h9l12 3 10 6 8 9 4 11v16l-3 10-7 11-9 9-3 2h-31l-7-1-25 6-12 1-15-1-24-6-3-2 5-2h4l-1-5-2-2-1-5-2-23v-9l2-11 1-7 5-2 3 1-1-9h2l3-16 3-5h2l2-5 4-2v-2l4-2 1-3h3l1-3h2z" fill="#92BF56"/>
<path transform="translate(272,698)" d="m0 0h24l17 2v14l-3 19-4 11-9 15-12 13-9 7-15 8-14 5-21 5-6 1h-32l-9-2-2-5 5-15 6-14 10-17 13-16 9-9 14-10 12-6 12-4z" fill="#509A0C"/>
<path transform="translate(137,612)" d="m0 0h22l14 3 11 5 14 8 12 9 7 7-1 4-9 12-7 8-17 13-18 8-11 2h-24l-14-3-19-8-14-9-13-10-8-7 1-4 9-8 21-14 16-8 16-6z" fill="#509A0C"/>
<path transform="translate(890,731)" d="m0 0h8l17 3 16 6 11 7 13 12 10 11 8 13 8 16 6 15 1 6-4 2-7 1-28 1-22-2-13-4-15-6-10-7-11-10-8-11-6-12-4-14-2-13v-7l23-6z" fill="#509A0C"/>
<path transform="translate(274,517)" d="m0 0h22l12 3 11 8 9 10 5 10 2 9 1 15-8 4-14 4-20 2-13-1-9-3-12-8-10-9-10-14-7-13v-3l23-10z" fill="#509A0C"/>
<path transform="translate(433,371)" d="m0 0h9l12 3 10 6 8 9 4 11v16l-3 10-7 11-9 9-3 2h-31l-5-5-10-8-7-12-2-9v-9l2-8 6-12 5-5 1-3 10-4z" fill="#FDFDFC"/>
<path transform="translate(658,207)" d="m0 0h15l11 4 11 8 7 11 2 9v9l-3 12-7 11-7 6-13 5-18 2v-2l-15-5-9-14-3-9-1-11 2-11 5-10 5-6 11-7z" fill="#FEFEFD"/>
<path transform="translate(789,485)" d="m0 0h19l11 4 10 9 5 9 3 12-1 12-6 12-5 6-8 6-10 4-13 1-13-2-2-1-4-7-4-2h-6l-4-14-1-13 2-11 6-11 8-8 10-5z" fill="#FEFEFD"/>
<path transform="translate(755,731)" d="m0 0h12l12 4 9 6 6 7 5 10 1 4v11l-4 11-6 9-9 8-10 4-5 1h-10l-11-3-8-5-8-9-5-11-1-5v-9l2-9 6-10 7-7 10-5z" fill="#FEFEFD"/>
<path transform="translate(417,583)" d="m0 0h9l13 4 10 7 7 9 4 11v14l-5 14-4 8-9 2-3 2-1 3-22 1-10-2-9-6-6-7-5-10-1-4v-17l5-12 7-8 10-6z" fill="#FEFEFD"/>
<path transform="translate(378,327)" d="m0 0 5 5 5 7 2 8-7 6-4 7-7 10-3 11 1 8 5 12-1 4-3 1-5-1-3 2v20l3 15 5 5v3l2 1-2 1h-12l-22-6 1-2 8-1-1-5-2-2-1-5-2-23v-9l2-11 1-7 5-2 3 1-1-9h2l3-16 3-5h2l2-5 4-2v-2l4-2 1-3h3l1-3h2z" fill="#7CB23E"/>
<path transform="translate(587,177)" d="m0 0h4l6 17 3 22v28l-2 18-4 15-5 15-8 19-2 1 2-6v-10l-2-7-3-8-3-4-1-7-1-5-2-16-1-9v-8l2-14 3-9 2-7h2l2-9 1-3 3-3 2-4 1-3h2z" fill="#7CB23F"/>
<path transform="translate(762,671)" d="m0 0 3 1v2l5 1v2l6-1 13 3 12-1-3 2-26 11-21 10-17 10-11 6-16 9-11 8-18 18v-4h2l2-7-3-7-5-2 3-5 26-26 14-10 14-8 15-7z" fill="#6C9F35"/>
<path transform="translate(893,607)" d="m0 0 2 1-11 12-10 9-7 7-5 4h-2v2l-15 12-9 7-6 4h-2l-2 4-6 2-17 7-16 2-13-3h-4v-2l-5-1v-2l-2-1 18-5 21-6 15-5 26-13 9-6 8-5 7-5h3v-2l8-6 13-10z" fill="#2E571B"/>
<path transform="translate(398,361)" d="m0 0h2v2l4 1 7 13 2 1-2 4-6 8-4 9-1 6v9l2 9 7 12 10 8 3 3-20 4-4-3v-2l-7-1v-2h-2l-3-6v-7h3l1-3 4 1v-6l-6-8-3-6-1-15 1-9 7-12h2l1-6z" fill="#ABC884"/>
<path transform="translate(980,645)" d="m0 0h13l8 4 5 7 1 3v9l-4 10-5 4-8 3h-8l-8-4-6-7-1-3v-13l4-7 5-4z" fill="#ABC884"/>
<path transform="translate(176,545)" d="m0 0h8l8 4 5 7 1 3v9l-6 9-6 4-7 1-9-3-6-7-2-5v-7l4-8 6-5z" fill="#ABC884"/>
<path transform="translate(424,447)" d="m0 0h27l11 14 10 10 7 8 8 9v2l-7 1v2h-2l-1 6-4-4-10-14-10-10-8-7-12-10-9-6z" fill="#7FB343"/>
<path transform="translate(382,502)" d="m0 0 10 1 5 4 2 4v10l-4 6-6 5h-10l-7-6-2-5v-8l3-6 5-4z" fill="#AAC783"/>
<path transform="translate(444,650)" d="m0 0h6l5 15 12 31-2 2-8 3-1-1-2 3-15-44-1-5z" fill="#7EB241"/>
<path transform="translate(209,434)" d="m0 0 4 1v2l5 1 11 9 11 8 13 10 24 16 9 7 8 3 6 8v2l-11-1-2-6-6-2-9-5-5-3v-2l-5-2-11-8-7-5v-2l-4-2-13-11-11-8-5-5-3-4z" fill="#2D571B"/>
<path transform="translate(587,177)" d="m0 0h4v5h-2l-1 7h-3v2h-2l-1 5-1 3-1 7h-2l-1 13-3 11v19l3 16 2 6 3 1 3 9v20l-4 10-2 1 2-6v-10l-2-7-3-8-3-4-1-7-1-5-2-16-1-9v-8l2-14 3-9 2-7h2l2-9 1-3 3-3 2-4 1-3h2z" fill="#6B9E34"/>
<path transform="translate(642,276)" d="m0 0 10 4 4 2v2l-6 5-16 24-8 11-8-3-1-2h-3l13-18 10-15z" fill="#7EB341"/>
<path transform="translate(762,671)" d="m0 0 3 1v2l5 1v2l6-1 13 3 12-1-3 2-10 4h-6l-10 3-5-1-1 1h-8l-7 1h-9-3l-4-1h3v-2h-3l2-5 12-5z" fill="#519A0D"/>
<path transform="translate(978,437)" d="m0 0h7l6 3 4 5-1 9-4 6-5 3h-8l-6-5-3-7 1-6 5-6z" fill="#ABC884"/>
<path transform="translate(297,313)" d="m0 0h4v2l4 2 8 9 7 8 5 6v2h2l3 5 4 4 6 8 5 9v2l-5 1-8-9-8-10-9-12-10-12-9-12z" fill="#2C551A"/>
<path transform="translate(424,447)" d="m0 0h27l11 14 5 6-9-2h-4v2h2v6l-8-6-11-10-12-8z" fill="#93BF58"/>
<path transform="translate(378,327)" d="m0 0 4 4v4l-4-1-1 3-6 6-7 6-6 12-1 7 1 12h2l2 10-1 2-4-1-4-2v-3l-6-1-2 1-3 19-2 3v-9l2-11 1-7 5-2 3 1-1-9h2l3-16 3-5h2l2-5 4-2v-2l4-2 1-3h3l1-3h2z" fill="#6B9E34"/>
<path transform="translate(696,712)" d="m0 0 1 3h2l-1 7h-2l-1 5-3 8-2 1v4l-12 12v-4h2l2-7-3-7-5-2 3-5 11-11 7-3z" fill="#529B0F"/>
<path transform="translate(766,547)" d="m0 0 8 1 5 6v2l-6 2-9 7-16 13-2 2-3-1 3-1 1-5-2-1v-3l-2-1 12-10 9-7z" fill="#569D14"/>
<path transform="translate(451,675)" d="m0 0h6l3 3 7 18-2 2-8 3-1-1-2 3-7-21v-5z" fill="#6DA036"/>
<path transform="translate(766,690)" d="m0 0h6l-4 3-17 8-17 10-11 6-16 9v-3l5-3 3-5 3-3 12-6 5-5h4l6-3 2-2 9-2z" fill="#80B444"/>
<path transform="translate(208,644)" d="m0 0 8 2v2l-14 3-4 1-26 3-6 1h-10l-3-1-7 1v-3l42-6z" fill="#2C5519"/>
<path transform="translate(627,301)" d="m0 0h7l1 2 3 1-1 5-11 15-8-3-1-2h-3z" fill="#6EA137"/>
<path transform="translate(308,701)" d="m0 0h5l-1 4-11 9-16 10-7 5-7 4-6 4-10 5-2-1 12-9 9-6 16-11 16-12h2z" fill="#2C551A"/>
<path transform="translate(766,547)" d="m0 0 8 1 5 6v2l-6 2-9 6v-3l-9-2 4-4 5-4z" fill="#7FB343"/>
<path transform="translate(424,447)" d="m0 0h27l4 5v2l-5-1-7 1-4 1-1 3-10-7z" fill="#AAC783"/>
<path transform="translate(598,216)" d="m0 0h2v28l-2 18-3-4v-12l-1-2v-6l1-2 2-18z" fill="#95C05C"/>
<path transform="translate(444,650)" d="m0 0h6l3 11h-2v2l-6-1-2 5-2-3-3-7 1-4z" fill="#93BF58"/>
<path transform="translate(473,484)" d="m0 0 5 1 2 1 1-2 4 2 2 4-7 1v2h-2l-1 6-4-4-4-6 1-4z" fill="#549C12"/>
<path transform="translate(642,276)" d="m0 0 10 4 4 2v2l-6 5-2 2v-4h-9l-2 1 2-5z" fill="#93BF58"/>
<path transform="translate(462,687)" d="m0 0 2 1 3 9-10 4-1-1-2 3-2-6v-4l6-3 3 1-1-3z" fill="#539B12"/>
<path transform="translate(465,477)" d="m0 0 7 1h3l5 2 2 4-2 3-4-2-6 1-2 2-5-7 1-3z" fill="#6EA037"/>
<path transform="translate(621,310)" d="m0 0h2v2l3 1 2 5-1 5-2 1-7-3-1-2h-3z" fill="#529B10"/>
<path transform="translate(754,559)" d="m0 0 8 1 2 1-1 5-5 4h-2v-4l-6-3z" fill="#6FA139"/>
<path transform="translate(444,650)" d="m0 0h6l1 6-3-2-4 3-3 5-2-3-1-5z" fill="#ABC884"/>
<path transform="translate(766,547)" d="m0 0 8 1 5 6v2l-6 1-2-4-6-2z" fill="#ABC884"/>
<path transform="translate(642,276)" d="m0 0 10 4 4 2v2l-4 2-1-2-6-3h-4z" fill="#ABC884"/>
<path transform="translate(764,551)" d="m0 0 7 1 2 2v4l-4-1-7-3z" fill="#93BF59"/>
<path transform="translate(299,552)" d="m0 0 6 2 5 4 5 3v3l-9-5-5-3v-2h-2z" fill="#2C551A"/>
<path transform="translate(883,753)" d="m0 0 5 1 9 5-1 3-10-5-3-2z" fill="#2C551A"/>
<path transform="translate(346,438)" d="m0 0 2 2-1 4-3 3-7-1 1-2 8-1z" fill="#6FA138"/>
<path transform="translate(341,412)" d="m0 0h1l2 11v8h-2l-1-13z" fill="#6B9E34"/>
<path transform="translate(766,690)" d="m0 0h6l-4 3-6 3h-2l2-4z" fill="#87B74E"/>
</svg>
