<?xml version="1.0" encoding="UTF-8"?>
<svg version="1.1" viewBox="0 0 2000 2000" width="2000" height="2000" xmlns="http://www.w3.org/2000/svg">
<path transform="translate(911,796)" d="m0 0h173l10 2 10 3 17 9 9 7 7 7 7 10 13 18 13 19 11 15 7 10 24 34 7 10 10 14 24 34 7 10 9 13 8 11 21 30 11 15 9 13 24 34 16 23 6 8 9 13 15 20 8 13 4 8 5 1 9-11 10-11 5-6 11-9 11-8 19-9 18-5 12-2h24l15 3 17 5 20 10 11 7 11 9 2 3-1 5-18 14-10 7-12 8-11 6-14 7-13 5-14 3-8 1h-28l-20-3-17-6v-5l14-9 16-9 17-8 24-8 22-5 14-2 41-1-3-3-11-4-25-4h-29l-24 4-13 5-11 5-6 4-11 6-9 6-14 10-11 8-10 6-3 13-3 12-6 14-4 5-7 8-4 5-6 4-20 12-9 4-10 7-12 9-8 4-3-1-1-4 1-12-1-2-5-2h-5l-4 8-3 30h-4l-2-3-7 1-22 5-2 1v30l-3 16-7 13-9 11-8 8-8 5-7 4-5-1-1-3 2-9 6-16 2-7 5-10 4-9 4-8 2-8-3-3-4 1-9 13-7 11-6 14-3 9-6 21-3 11-4 5-6 2-4 12-5 9 1 4 9-4 10-4 9-5 12-4 13-5 13-4 15-4 17-4 7-1 20-1h36l23 2 20 6 6 4 2 2-1 6-1 1h-9l-11-3-21-3h-56l-31 4-10 3-13 2-16 4-6 2-19 5-11 4-8 2-8 4-5-1h-10l-17 4-21 7-30 7-27 4-25 2-23 3h-28l-32-2-20-4-23-5-17-6-26-9-6-2-21-2-18-4-10-5-12-5-13-5-14-6-12-4-8-3-14-4-6-3-17-5-8-3-19-5-9-3-23-5-15-3-14-2-39-2-2-2 1-4 2-2 4-1h30l24 3 15 2 13 4 20 5 19 6 7 2 7 3 16 6 10 4 11 4-10-16-9-13-8-16-1-4v-12l-3-3-19-7-7-3-13-5-5-2-21-5-9-3-17-3-14-4-38-5-24-2h-50l-6-4-1-5 8-6 14-3 6-1 18-1h30l23 2 24 4 25 5h3l-2-4-18-18-7-8-16-16-13-12-8-15-3-10-1-16 2-14 4-11 8-13 8-12 12-16 12-17 8-11 30-42 11-16 12-17 11-15 8-11 6-9 16-22 7-10 8-11 12-17 10-14 15-22 8-11 13-18 10-14 21-30 7-11 8-11 7-8 10-7 14-7 16-5z" fill="#1F8BA5"/>
<path transform="translate(911,796)" d="m0 0h173l10 2 10 3 17 9 9 7 7 7 7 10 13 18 13 19 11 15 7 10 12 17 10 14v2h-2l-4-6-8-11-4-6-16-22-8-12-6-8-7-10-10-14-7-10-7-9-13-10-6-3-3-2h-4l-1 3 1 6v18l-4 11-3 5-3 7-4 7h-2l-1 4-4 6-3 1v5l-2 1-1-2 2 26 3 55 1 51v62l-1 55-3 62-3 25-3 7h-10l-3-3-1-2v-19l3-39 2-53v-145l-1-29-2-24v-10h-2l-2-3-12 6-5 1-1 5-1 143-1 14-3 6-2 2h-7l-5-3-2-4v-117l-1-38-27 1-1 4-1 15-1 2-4 64-2 46-1 94-2 5-1 1h-7l-5-5v-99l2-43 3-35 1-33 3-19-5-2-7-2-15-5-3-2-2 36-1 40-1 4-1 96v106l-2 7-5 3h-5l-4-4-1-5-1-15v-96l3-86 3-55 3-31v-25l-7 18-6 20-7 32-6 34-6 50-3 31-4 76-2 58-2 10-1 1h-12l-3-4v-60l2-34 3-31 3-43 3-22 2-11 3-29 3-17 6-29 4-13 5-23 4-15h-2l-2-5-4-1-6-12-3-10-4-13v-6l2-8v-6l4-3h2v-4l-18 5-9 6-5 3-7 6-14 20-7 11-9 13-15 22-4 5-7 10-10 14-12 17-6 8-7 10-4 6-7 10-4 6h-2l-1 4-15 20-4 6-7 10-5 6-4 7-4 5-7 9-4 8-5 5-4 7-7 9-7 10-8 11-10 15h-2l-2 5-6 9h-2l-2 5-5 6-4 7-8 11-7 10-7 9-12 18-7 12-4 17v16l3 12 4 8v3l4 2 3 4h10l9-5 20-7h22l20 3 13 4v2l5 1 14 8 15 12 3 4v2h2l10 16 6 13 2 6v17l-4-1-8-7-16-13-10-9-9-6-7-5-9-5-8-5-14-7-16-6-15-4-17-2h-12l21 21 7 8 26 26 13 5 16 6 15 7 17 8 16 9 12 7 11 7 11 8 17 12 2 1v3l-5-1-17-9-12-5-15-6-8-3-2 6v10l5 8 4 8 8 12 8 11 5 6 9 5 16 10 11 5 3 3 11 5 7 3 38 5 4 2 14 3 16 3 15 3 21 1h36l13-1 21-5 12-2 31-11 8-4 12-5 7-3h5l-1 7-5 9-7 9-7 6-14 8-4 2h18l10-2 15-2 22-5 15-4 18-6 13-3 17-1 2-7 6-9 5-15 2-7-1-9v-16l3-18 5-12 5-10 8-11 7-6 4-4 6-5-2-2-25-5-24-5-4 5h-2v3l-2 1-2 4h-2l-1 4-10 9-4 5-8 6-6 5h-2l-1 3-8 4-5 4-6 3h-2v2l-23 10-24 7-12 2-12 1h-43l-19-3-27-8-19-9-20-12-9-6v-2h-3l-5-5v-2l-6-3-2-4-3-1-6-8-3-2-4-8-4-6-15 3-12 3-26 5-11 3h-6v-2l13-4 16-4 21-5 27-6 10-2h9l8 11 9 11 10 10 15 11 20 11 21 8 26 5 9 1h19l27-4 13-3 23-10 15-9 11-8 12-11 9-10 8-12 3-3 13 3 26 4 25 5 22 6 5 1 4-1 1 3-1 2h-2l-1 3h-2l-1 3-4 3 8 5 3 3-3 5-3 9-5 7-3 11-4 5-3 11-3 10-2 3-1 7h4v-2l12-6 6-6h2l2-4 4-6 9-15 2-11v-34l2-3 3-1h7v2l-8 2v30l-3 16-7 13-9 11-8 8-8 5-7 4-5-1-1-3 2-9 6-16 2-7 5-10 4-9 4-8 2-8-3-3-4 1-9 13-7 11-6 14-3 9-6 21-3 11-4 5-6 2-4 12-5 9 1 4 9-4 10-4 9-5 12-4 13-5 13-4 15-4 17-4 7-1 20-1h36l23 2 20 6 6 4 2 2-1 6-1 1h-9l-11-3-21-3h-56l-31 4-10 3-13 2-16 4-6 2-19 5-11 4-8 2-8 4-5-1h-10l-17 4-21 7-30 7-27 4-25 2-23 3h-28l-32-2-20-4-23-5-17-6-26-9-6-2-21-2-18-4-10-5-12-5-13-5-14-6-12-4-8-3-14-4-6-3-17-5-8-3-19-5-9-3-23-5-15-3-14-2-39-2-2-2 1-4 2-2 4-1h30l24 3 15 2 13 4 20 5 19 6 7 2 7 3 16 6 10 4 11 4-10-16-9-13-8-16-1-4v-12l-3-3-19-7-7-3-13-5-5-2-21-5-9-3-17-3-14-4-38-5-24-2h-50l-6-4-1-5 8-6 14-3 6-1 18-1h30l23 2 24 4 25 5h3l-2-4-18-18-7-8-16-16-13-12-8-15-3-10-1-16 2-14 4-11 8-13 8-12 12-16 12-17 8-11 30-42 11-16 12-17 11-15 8-11 6-9 16-22 7-10 8-11 12-17 10-14 15-22 8-11 13-18 10-14 21-30 7-11 8-11 7-8 10-7 14-7 16-5z" fill="#5EB6C0"/>
<path transform="translate(666,1246)" d="m0 0h28l14 2 16 5 14 9 12 9 9 9v2h2l9 13 6 13 5 19 3 11 6 1 16-4 26-5 14-4h12l3 5 4 4v3l4 2 5 6v2l4 1 1 4 4 2 7 6v2h3l2 3 9 5 15 9 16 8 12 5 25 7 15 2h43l19-2 19-5 12-4 19-8h2v-2l11-6 7-5 3-1 5-5 10-8h2l2-4 9-9 3-2 1-3 2-1 2-4h2v-3l5-5 2-1 27 6 21 4 3 3-7 6-8 7-5 6-7 10-7 16-3 14-1 7v18l1 9-4 10-3 10-7 11-2 5-22 3-14 4-14 5-26 6-14 3-17 2-3 1h-20l3-3 14-7 4-3h2l2-4 5-5 7-10 3-10-10 3-11 5-10 4-9 4-27 9-12 2-17 4-13 1h-36l-21-1-15-3-24-5-9-2-1-1-38-5-20-9-1-3-5-1-13-7-10-7-9-5-9-11-12-18-8-15-1-1v-10l3-6 11 3 14 6 10 4 19 10 3 1v-3l-5-2-14-10-17-12-15-9-11-6-19-10-16-7-15-6-13-5-8-4-9-10-21-21-7-8-10-9-2-4-3-3h17l22 4 16 6 12 5 15 8 7 5 9 5 5 4 11 8 7 7 9 7 10 9 6 3-1-17-5-13-7-13-5-7v-2h-2l-3-4v-2l-4-2-7-6-14-9-9-4v-2l-10-2-14-4-8-2z" fill="#0B4F45"/>
<path transform="translate(997,505)" d="m0 0h26l17 4 16 7 13 8 12 11 8 11 6 9 8 21 1 3 1 12v12l-2 16-8 21-8 13-11 12-9 8-13 8-15 6-15 3h-25l-14-3-16-6-13-8-14-12-8-10-6-9-8-21-2-13v-19l3-17 6-15 7-12 11-13 9-8 16-10 15-6z" fill="#1F8BA4"/>
<path transform="translate(550,1307)" d="m0 0h30l23 2 24 4 25 5h3v-3l4 1 5 5 13 5 16 6 15 7 17 8 16 9 12 7 11 7 11 8 17 12 2 1v3l-5-1-17-9-12-5-15-6-8-3-2 6v10l5 8 4 8 8 12 8 11 5 6 9 5 16 10 11 5 3 3 11 5 7 3 38 5 4 2 14 3 16 3 15 3 21 1h36l13-1 21-5 12-2 31-11 8-4 12-5 7-3h5l-1 7-5 9-7 9-7 6-14 8-4 2h18l10-2 15-2 22-5 15-4 18-6 13-3 17-1 2-7 6-9 5-15 2-7-1-9v-16l3-18 5-12 5-10 8-11 7-6 4-4 6-5-2-2-25-5-24-5-4 5h-2v3l-2 1-2 4h-2l-1 4-10 9-4 5-8 6-6 5h-2l-1 3-8 4-5 4-6 3h-2v2l-23 10-24 7-12 2-12 1h-43l-19-3-27-8-19-9-20-12-9-6v-2h-3l-5-5v-2l-6-3-2-4-3-1-6-8-3-2-4-8-4-6-15 3-12 3-26 5-11 3h-6v-2l13-4 16-4 21-5 27-6 10-2h9l8 11 9 11 10 10 15 11 20 11 21 8 26 5 9 1h19l27-4 13-3 23-10 15-9 11-8 12-11 9-10 8-12 3-3 13 3 26 4 25 5 22 6 5 1 4-1 1 3-1 2h-2l-1 3h-2l-1 3-4 3 8 5 3 3-3 5-3 9-5 7-3 11-4 5-3 11-3 10-2 3-1 7h4v-2l12-6 6-6h2l2-4 4-6 9-15 2-11v-34l2-3 3-1h7v2l-8 2v30l-3 16-7 13-9 11-8 8-8 5-7 4-5-1-1-3 2-9 6-16 2-7 5-10 4-9 4-8 2-8-3-3-4 1-9 13-7 11-6 14-3 9-6 21-3 11-4 5-6 2-4 12-5 9 1 4 9-4 10-4 9-5 12-4 13-5 13-4 15-4 17-4 7-1 20-1h36l23 2 20 6 6 4 2 2-1 6-1 1h-9l-11-3-21-3h-56l-31 4-10 3-13 2-16 4-6 2-19 5-11 4-8 2-8 4-5-1h-10l-17 4-21 7-30 7-27 4-25 2-23 3h-28l-32-2-20-4-23-5-17-6-26-9-6-2-21-2-18-4-10-5-12-5-13-5-14-6-12-4-8-3-14-4-6-3-17-5-8-3-19-5-9-3-23-5-15-3-14-2-39-2-2-2 1-4 2-2 4-1h30l24 3 15 2 13 4 20 5 19 6 7 2 7 3 16 6 10 4 11 4-10-16-9-13-8-16-1-4v-12l-3-3-19-7-7-3-13-5-5-2-21-5-9-3-17-3-14-4-38-5-24-2h-50l-6-4-1-5 8-6 14-3 6-1z" fill="#60B7C1"/>
<path transform="translate(1432,1290)" d="m0 0h11l21 2 19 5 18 7 16 9 12 9 7 6 5 5 3 4-1 5-10 7-19 13-22 13-17 9-21 9-22 7-17 3-16 1h-13l-21-2-12-2-23-7-3-2 1-4 11-7 9-4 11-5 17-8 14-6 14-4 11-4 23-4 19-3 9-1 21-1 41-1-3-4-18-4-10-3-8-2-13-1h-33l-14 1-36 8-15 6-20 9-26 16-11 7-6 4-10 6-7 5-6 3-9 6-4-1 1-7 7-13 7-10 9-12 14-15 9-9 19-13 10-6 16-8 20-7 16-3z" fill="#3E949F"/>
<path transform="translate(948,811)" d="m0 0h3l-1 20-5 54-2 21-1 23-1 47-1 96v106l-2 7-5 3h-5l-4-4-1-5-1-15v-96l3-86 3-55 3-31v-25l-7 18-6 20-7 32-6 34-6 50-3 31-4 76-2 58-2 10-1 1h-12l-3-4v-60l2-34 3-31 3-43 3-22 2-11 3-29 3-17 6-29 4-13 4-17 11-31 10-22 8-12 10-12z" fill="#EDFEFE"/>
<path transform="translate(1343,1117)" d="m0 0 4 4 11 16 6 8 9 13 15 20 8 13 4 8 5 1 9-11 10-11 5-6 11-9 11-8 19-9 18-5 12-2h24l15 3 17 5 20 10 11 7 11 9 2 3-1 5-18 14-10 7-12 8-11 6-14 7-13 5-14 3-8 1h-28l-20-3-17-6v-5l14-9 16-9 17-8 24-8 22-5 14-2 41-1-3-3-11-4-25-4h-29l-24 4-13 5-11 5-6 4-11 6-9 6-14 10-11 8-10 6-3 13-3 12-6 14-4 5-7 8-4 5-6 4-20 12-9 4-10 7-12 9-8 4-3-1-1-4 1-12-1-2-5-2h-5l-4 8-3 30h-4l-2-3-7 1-13 3-3-1 3-2 11-2 8-4-1-5-6-17-2-23 1-15 4-14 5-13 7-11 1-3 5-5 3-4h2l2-5 5-1 1-3h2l2-4 2-3 5-3 6-5 6-2 5-5 7-1 2 2 2 8 2 2 4 21 2 14v9l-3 19-3 12-5 10-4 7-3 4-1 3 13-5 10-6 15-10 8-10 6-9 6-16 3-17 3-5 9-5 11-8 5-4 10-7 9-6 10-6 6-3 4-3 7-3 9-4 1-1 27-4h29l19 2 15 4 10 5 1 1v5l-9 1-34 1-21 2-8 3-11 2-13 4-3 2-8 2-11 6-6 2-8 5-9 5-6 4h-2v4l6 1 5 2 15 2 10 2h25l22-4 13-5 16-8 13-8 15-10h2l1-3 10-7 7-6-2-4-7-5-4-4-13-7-12-6-9-3-8-3-14-3-27-1-16 4-10 2-11 4-10 6-5 2-10 7-5 5-7 6-2 4-6 5-7 8-6 8-5 1-6-8-6-12-9-12-2-5h-2l-13-19-2-5h-2l-11-16-5-7z" fill="#5FB7C1"/>
<path transform="translate(1141,1313)" d="m0 0 13 3 19 3 9 3 28 6 5 2v1h-11l-18-3-17-4h-4l-3 6h-2v3l-2 1-2 4h-2l-1 4-10 9-4 5-8 6-6 5h-2l-1 3-8 4-5 4-6 3h-2v2l-23 10-24 7-12 2-12 1h-43l-19-3-27-8-19-9-20-12-9-6v-2h-3l-5-5v-2l-6-3-2-4-3-1-6-8-3-2-4-8-4-6-15 3-12 3-26 5-11 3h-6v-2l13-4 16-4 21-5 27-6 10-2h9l8 11 9 11 10 10 15 11 20 11 21 8 26 5 9 1h19l27-4 13-3 23-10 15-9 11-8 12-11 9-10 8-12z" fill="#EDFEFE"/>
<path transform="translate(1501,1141)" d="m0 0 27 1 18 4 9 3 18 9 14 8 1 3 5 2 5 5-2 4-11 9-5 3-4 4-14 9-10 6-12 7-12 5-12 4-18 3h-25l-16-3-12-2-8-3v-4l13-8 16-9 5-1 4-3 6-3 8-2 7-3 10-3 11-2 5-2 21-2 43-1-2-6-12-5-12-3-19-2h-29l-27 4-7 4-10 4-7 5-10 5-11 7-9 7-6 4-10 8-8 4-5 3 2-4 2-2-1-5h3l1-3-10 1-1-4 3 2 5-1 9-12 8-8h2l2-5 8-7 7-6 8-6 7-3 12-6 9-3 14-3z" fill="#3E949F"/>
<path transform="translate(445,1161)" d="m0 0h25l14 3 18 7 13 7 13 10 7 6 7 8 9 11 9 15 8 17 4 8 3 10-1 5-4-1-7-6-8-7-5-5-14-15-9-11-13-13-16-10-12-7-12-5-10-4-27-6-20-1 2 4 15 6 20 7 6 4 10 4 8 5 7 4 12 8 11 9 13 11 6 5 3 4-2 4h-30l-24-7-16-8-11-8-13-12-14-14-11-14-6-9 1-7 11-5 11-4 9-2z" fill="#3E949F"/>
<path transform="translate(550,1307)" d="m0 0h30l23 2 24 4 25 5h3v-3l4 1 5 5 13 5 16 6 15 7 17 8 16 9 12 7 11 7 11 8 17 12 2 1v3l-5-1-17-9-12-5-15-6-8-3-2 6v10l5 8 4 8 8 12 8 11 5 6 9 5 16 10 11 5 5 5 1 2-10-3-13-6-9-3-12-5-11-4-20-6-6-3-17-5-8-3-19-5-9-3-23-5-15-3-14-2-39-2-2-2 1-4 2-2 4-1h30l24 3 15 2 13 4 20 5 19 6 7 2 7 3 16 6 10 4 11 4-10-16-9-13-8-16-1-4v-12l-3-3-19-7-7-3-13-5-5-2-21-5-9-3-17-3-14-4-38-5-24-2h-50l-6-4-1-5 8-6 14-3 6-1z" fill="#61B7C1"/>
<path transform="translate(1049,811)" d="m0 0 7 2 5 7 5 11 7 23 7 50 3 55 1 51v62l-1 55-3 62-3 25-3 7h-10l-3-3-1-2v-19l3-39 2-53v-145l-1-29-3-34-5-44-5-21-3-15v-5z" fill="#eff"/>
<path transform="translate(1568,909)" d="m0 0h22l5 2 1 6-8 24-10 19-8 11-9 10-4 5-14 10-16 8-17 5-14 1-1-3 4-7 12-14 7-8 16-16 9-8 5-5 14-12 12-9 8-7 1-3-14 5-15 7-11 6-12 8-11 9-14 14-10 13-13 18-7 9-22 22h-3v-7l9-26 9-17 7-13 9-12 11-12 12-10 12-8 15-7 14-5z" fill="#3F959F"/>
<path transform="translate(1532,744)" d="m0 0h7l2 2 1 9-2 20-7 26-9 19-9 12-14 14-13 9-17 8-7 2h-5l-1-4 10-17 8-14 6-9 12-17 7-10 18-22 9-12 2-5-7 3-12 9-10 9-8 7-12 12-8 11-9 14-6 10-9 19-8 17-4 8-2 3h-3v-22l4-20 8-21 3-4 5-10 8-11 8-9 8-7 11-9 12-7 17-9z" fill="#3E949F"/>
<path transform="translate(1432,1290)" d="m0 0h11l21 2 19 5 18 7 16 9 12 9 7 6 5 5 3 4-1 5-10 7-19 13-22 13-17 9-21 9-22 7-17 3-16 1h-13l-21-2-12-2-23-7-3-2 1-4 11-7 9-4 11-5 17-8 14-6 14-4 11-4 23-4 19-3 9-1 21-1 41-1-3-4-18-4-10-3-8-2-13-1h-33l-14 1-36 8-15 6-20 9-26 16-11 7-6 4-10 6-7 5-6 3-9 6-4-1 1-7 7-13 7-10 9-12 14-15 9-9 19-13 10-6 16-8 20-7 16-3zm-7 3-16 2-2 1v2l-3-1-1 5-5 2-1 9-4 7-2 9 6 1 8-2 15-2 4-2 6-1h55l7 1 9 3 25 6 5 2-1 4 1 2-38 1-9 1-32 2-9 1-10 3-16 2-11 3-3 2-14 4-9 4-12 5-22 11-8 3-8 6 1 2 7 1 7 3 9 3 22 3h34l10-2 10-1 16-5 8-3 12-5 18-8 12-7 8-5 12-7 21-14 5-4-1-4-4-1v-2h-2l-1-4-9-8-13-9-15-7-10-4-9-3-17-4-7-1z" fill="#5FB7C1"/>
<path transform="translate(1008,812)" d="m0 0h2l-1 8-4 8-7 27-8 44-1 10-3 52-3 55-1 25-1 94-2 5-1 1h-7l-5-5v-99l2-43 3-35 2-31 8-53 7-28 6-16 6-10 4-6z" fill="#eff"/>
<path transform="translate(643,1248)" d="m0 0h22l20 3 13 4v2l5 1 14 8 15 12 3 4v2h2l10 16 6 13 2 6v17l-4-1-8-7-16-13-10-9-9-6-7-5-9-5-8-5-14-7-16-6-15-4-17-2h-12l21 21 7 8 19 19-3 1-19-19-7-8-16-16-13-12-1-6 6 6h10l9-5z" fill="#5BB4BE"/>
<path transform="translate(430,1034)" d="m0 0h14l16 2 10 4 12 6 11 8 7 8 11 15 10 20 5 14 1 9-5-1-6-7-4-4-8-11-10-13-7-9-8-7-9-8-7-4-8-5-8-4-8-3-8-2 3 6 9 6 11 9 13 12 8 7 9 9 7 10v4l-4 1-15-2-17-8-13-11-9-11-8-14-5-10-2-11 3-3z" fill="#3E949F"/>
<path transform="translate(1326,842)" d="m0 0h15l20 6 8 4 10 7 5 4 5 5 7 8 6 8 7 14 7 24 1 16-3 2-3-5-5-9-8-15-3-5-8-13-3-5-14-15-6-5-3-3-11-8-14-8h-4l1 4 13 12 9 9 7 8 3 5 5 5 9 12 4 6 5 7v5l-9-1-16-5-14-9-9-9-7-10-7-14-4-17-2-7v-5l2-2z" fill="#62B8C2"/>
<path transform="translate(476,889)" d="m0 0 7 1 16 9 10 7 14 14 8 12 5 9 5 14 2 13v24l-2 6h-4l-6-23-3-8-4-13-10-20-6-9-10-13-5-5-10-9-3-1 3 7 6 12 7 11 16 32 5 13 3 10v5l-5 1-10-5-14-12-10-12-7-15-2-6-2-12v-20l2-12 2-4z" fill="#5FB7C1"/>
<path transform="translate(445,1161)" d="m0 0h25l14 3 18 7 13 7 13 10 7 6 7 8 9 11 9 15 8 17 4 8 3 10-1 5-4-1-7-6-8-7-5-5-14-15-9-11-13-13-16-10-12-7-12-5-10-4-27-6-20-1 2 4 15 6 20 7 6 4 10 4 8 5 7 4 12 8 11 9 13 11 6 5 3 4-2 4h-30l-24-7-16-8-11-8-13-12-14-14-11-14-6-9 1-7 11-5 11-4 9-2zm-6 3-12 2-15 5-6 3-1 1 1 7 5 5 1 3h2l2 4 13 15 14 14 9 7 6 4 9 5h2v2l4 2 9 2 16 4 2 1h25l2-2-6-7-8-6-3-1v-2l-6-4-9-7-4-4-10-6-6-3h-3v-2h-3l-1-2-6-3-5-2-4-3-13-4-5-3-9-2-9-4-4-4v-3l25-1 13 4 12 2 9 3 8 4 14 6 2 2h3v2l6 1 1 3 4 1-1-3 4-1 1-5-3-9-1-4-9-7-4-2-10-3-5-3-11-2z" fill="#5FB7C1"/>
<path transform="translate(1579,911)" d="m0 0h8l7 2v5l-3 7-6 17-8 15-7 10-9 11-5 5-10 8-9 5-12 6-11 4-5 1h-11l2-5 5-5 3-5 11-12h2l1-4 6-4 4-6 8-7 5-5 6-5h2l2-4 12-9 11-9 5-3 1-3h2v-4h-12l-1-4 5-1z" fill="#3E949F"/>
<path transform="translate(1298,1426)" d="m0 0h36l23 2 20 6 6 4 2 2-1 6-1 1h-9l-11-3-21-3h-56l-31 4-10 3-13 2-16 4-6 2-19 5-11 4-8 2-8 4-14-2v-1h13l5-3 2-6 3 3 9-4 10-4 9-5 12-4 13-5 13-4 15-4 17-4 7-1z" fill="#65BAC3"/>
<path transform="translate(613,996)" d="m0 0h14l2 1v10l-2 11-8 18-14 15-10 7-15 5-4-2 1-5 7-11 4-5 9-11 7-8 9-11 6-7-2-1-13 7-5 4h-2l-2 4-7 7-6 7-6 8-6 10-10 19-5 4v-10l6-23 8-15 9-11 8-6 14-7z" fill="#63B9C2"/>
<path transform="translate(1176,1320)" d="m0 0 7 1 18 3 26 7 5 1 4-1 1 3-1 2h-2l-1 3h-2l-1 3-4 3 8 5 3 3-3 5-3 9-5 7-3 11-4 5-3 11-3 10-2 3-1 7h4v-2l12-6 6-6h2l2-4 4-6 9-15 2-11v-34l2-3 3-1h7v2l-8 2v30l-3 16-7 13-9 11-8 8-8 5-7 4-5-1-1-3 2-9 6-16 2-7 5-10 4-9 4-8 2-8-3-3-4 1-9 13-7 11-6 14-3 9-6 21-3 11-4 5-7 2 2-4 2-2 1-7h-2l-2-7v-17l5-21 4-8 4-7h2l1-3h2l1-4 2-3h2v-3l5-4 5-5 8-5-2-2-17-2-36-8-3 1 1-3 8 1 23 5 8 1h9l-16-4-18-4z" fill="#5EB6C0"/>
<path transform="translate(1532,1049)" d="m0 0h18l9 3 2 2-1 9-6 9-11 12-8 6-12 6-5 1h-16l-1-5 9-7 8-6h2v-2l12-7 8-5 6-4 3-3-14 2-8 3-13 7-10 7-14 14-10 7-4 3h-4l2-7 11-17 8-9 8-7 15-9z" fill="#5FB7C1"/>
<path transform="translate(1343,1117)" d="m0 0 4 4 11 16 6 8 9 13 15 20 8 13 4 8 5 1 9-11 10-11 5-6 11-9 11-8 19-9 18-5 12-2h24l15 3 17 5 20 10 11 7 11 9 2 3-1 5-18 14-10 7-12 8-11 6-14 7-13 5-14 3-8 1h-28l-20-3-17-6v-5l14-9 16-9 17-8 24-8 22-5 14-2 41-1-3-3-11-4-25-4h-29l-24 4-13 5-11 5-6 4-11 6-9 6-14 10-11 8-10 6-3 13-1 6h-2v-8l3-12 8-6 6-3 9-7 10-7 8-6 15-9 6-3 4-3 7-3 9-4 1-1 27-4h29l19 2 15 4 10 5 1 1v5l-9 1-34 1-21 2-8 3-11 2-13 4-3 2-8 2-11 6-6 2-8 5-9 5-6 4h-2v4l6 1 5 2 15 2 10 2h25l22-4 13-5 16-8 13-8 15-10h2l1-3 10-7 7-6-2-4-7-5-4-4-13-7-12-6-9-3-8-3-14-3-27-1-16 4-10 2-11 4-10 6-5 2-10 7-5 5-7 6-2 4-6 5-7 8-6 8-5 1-6-8-6-12-9-12-2-5h-2l-13-19-2-5h-2l-11-16-5-7z" fill="#5FB7C1"/>
<path transform="translate(587,1391)" d="m0 0h30l24 3 15 2 13 4 20 5 19 6 7 2 7 3 16 6 10 4 11 4-1-4 3 3 3 5 17 8 6 4 9 3 5 2 5 5 1 2-10-3-13-6-9-3-12-5-11-4-20-6-6-3-17-5-8-3-19-5-9-3-23-5-15-3-14-2-39-2-2-2 1-4 2-2z" fill="#6ABCC5"/>
<path transform="translate(1248,1327)" d="m0 0h4v5l4 1-4 4v34l-3 13-8 13-7 10-10 8-8 4h-2v2h-4v-7l3-7 3-8 2-9 4-5 3-11 6-9 3-9 2-4-5-3 2-1 5 1 3-9 5-9z" fill="#3F959F"/>
<path transform="translate(1568,909)" d="m0 0h22l5 2 1 6-8 24-10 19-8 11-9 10-4 5-14 10-16 8-17 5-14 1-1-3 4-7 12-14 7-8 16-16 9-8 5-5 14-12 12-9 8-7 1-3-14 5-15 7-11 6-12 8-11 9-14 14-10 13-13 18-7 9-22 22h-3v-7l9-26 9-17 7-13 9-12 11-12 12-10 12-8 15-7 14-5zm10 2-16 1-12 2-8 3-13 5-15 8-11 8-6 7-3 2v2l-4 2-8 11-8 13-1 4-3 2-2 6-3 6-4 7v5h2v-2l2 1-1 3-4 2-2 3 2 3-2 1 4-1 2-1v-4h4l5-4v-2h3v-2h2l4-7v-2l4-2 6-10 7-9 4-6 6-5 3-4v-2l5-2 2-4 4-2 11-8 7-4 4-3 7-3 16-8 11-4h7v4h-2l-2 4-8 5-13 11-8 6v2l-5 2-5 6-8 7-14 14v2l-4 2-11 12-3 5-4 4-1 4h11l13-4 12-5 10-6 6-4 8-6 9-11 8-11 4-7 8-16 6-18 1-1v-5l-7-2z" fill="#5FB7C1"/>
<path transform="translate(476,894)" d="m0 0 2 4 2 7 3 4 6 11 7 12 3 5 6 12 2 3v5h2l3 11 4 6 2 9-1 2-5-1-12-7-4-5-8-7-10-16-3-10-1-2-2-25 2-16z" fill="#3E949F"/>
<path transform="translate(1532,744)" d="m0 0h7l2 2 1 9-2 20-7 26-9 19-9 12-14 14-13 9-17 8-7 2h-5l-1-4 10-17 8-14 6-9 12-17 7-10 18-22 9-12 2-5-7 3-12 9-10 9-8 7-12 12-8 11-9 14-6 10-9 19-8 17-4 8-2 3h-3v-22l4-20 8-21 3-4 5-10 8-11 8-9 8-7 11-9 12-7 17-9zm3 1-9 3-9 2-6 4-10 4-14 9-16 13-7 8-3 3v2l-3 1-4 7-8 15-5 11-4 11-3 18v14h4l3-9 6-12 3-8 4-5 3-8 12-20 5-7v-2l3-1 6-8 5-5 7-6 5-5 7-6 10-8 8-6 8-2-1 5-7 11-4 5-9 11-6 7v2l-3 1-10 16-8 10-6 9-6 10-6 11-6 9v4l7-1 19-9 11-8 10-9 8-10 2-1 3-5 9-17 4-12 5-23v-21z" fill="#5FB7C1"/>
<path transform="translate(430,1034)" d="m0 0h14l16 2 10 4 12 6 11 8 7 8 11 15 10 20 5 14 1 9-5-1-6-7-4-4-8-11-10-13-7-9-8-7-9-8-7-4-8-5-8-4-8-3-8-2 3 6 9 6 11 9 13 12 8 7 9 9 7 10v4l-4 1-15-2-17-8-13-11-9-11-8-14-5-10-2-11 3-3zm-1 2-8 2 1 12 3 5 4 8 4 7 11 14 10 8 5 3h2v2l5 2h5l1 3 9 1h6v-4l-2-3h-2l-1-4-5-5-3-1-2-4-4-4h-2v-2l-5-5-11-9-15-11-7-7 1-4 11 2 9 4 14 7 9 6 3 3 4 2 5 6 4 1v2h2l2 5 7 8 4 6 5 7h2l1 4h2l2 4 6 7h2l-1-9-4-7-3-9-4-5-6-11-8-12-8-8-7-2-1-3-9-4-8-4-2 1v-2l-11-2h-15l-4-1z" fill="#5FB7C1"/>
<path transform="translate(1337,1198)" d="m0 0h1l-1 10-7 21-9 28-5 17-3 16-2 4-12-3-1-5 6-23 7-18 7-15 8-16 9-13z" fill="#0B4F45"/>
<path transform="translate(997,505)" d="m0 0h26l17 4 16 7 13 8 12 11 8 11 6 9 8 21 1 3 1 12v12l-2 16-8 21-8 13-11 12-9 8-13 8-15 6-15 3h-25l-14-3-16-6-13-8-14-12-8-10-6-9-8-21-2-13v-19l3-17 6-15 7-12 11-13 9-8 16-10 15-6zm2 2-12 2-10 4-16 8-13 10-11 12-7 11-5 12-3 10-1 2-1 11v21l2 12 5 12 4 9 4 6 8 11 14 12 8 5 10 5 12 4 2 1 12 1h20l11-1 23-8 12-9 9-7 10-12 8-12 4-11 1-7 3-4 1-7v-24l-2-10-7-19-8-13-8-10-8-7-15-10-20-8-13-2z" fill="#5FB7C1"/>
<path transform="translate(882,803)" d="m0 0m-2 1 2 1-11 7-6 4-7 6-14 20-7 11-9 13-15 22-4 5-7 10-10 14-12 17-6 8-7 10-4 6-7 10-4 6h-2l-1 4-15 20-4 6-7 10-5 6-4 7-4 5-7 9-4 8-5 5-4 7-7 9-7 10-8 11-10 15h-2l-2 5-6 9h-2l-2 5-5 6-4 7-8 11-7 10-7 9-12 18-7 12-4 17v16l3 12 5 11-1 2-7-14-2-7-1-16 2-14 4-11 8-13 8-12 12-16 12-17 8-11 30-42 11-16 12-17 11-15 8-11 6-9 16-22 7-10 8-11 12-17 10-14 15-22 8-11 13-18 10-14 21-30 7-11 8-11 7-8 10-7z" fill="#5FB7C1"/>
<path transform="translate(486,895)" d="m0 0 9 4 9 6 8 7 10 10 6 10 3 4 4 7 2 7 2 8 2 23v9l-4 1-5-20-6-18-4-7-2-7-14-21-5-5-7-8-5-3-3-4z" fill="#3E949F"/>
<path transform="translate(1215,1334)" d="m0 0 7 1v3l-10 7h-2l-2 4-4 2v3l-4 4-1 3-3 3h-2l-2 6-3 5-4 11-3 14v17l1 7h2v7l-4 4-4 14-6 10-3 7-5 3h-13l-5 2-15 4-19 6-30 7-27 4h-26v-2l14-6 5-3h2l1-3 12-8 2-4h2l2-6 4-6 1-4-3-2h5l-1 7-5 9-7 9-7 6-14 8-4 2h18l10-2 15-2 22-5 15-4 18-6 13-3 17-1 2-7 6-9 5-15 2-7-1-9v-16l3-18 5-12 5-10 8-11 7-6 4-4 6-5z" fill="#3190A1"/>
<path transform="translate(1555,1055)" d="m0 0 4 1-1 8-11 13-5 5-6 5-14 7-4 1h-11l-2-1v-3l8-6 10-8 6-3 11-7 7-4 6-3z" fill="#3D949F"/>
<path transform="translate(1534,1051)" d="m0 0h16l4 2v2l-15 2-16 6-12 7-9 7-7 6h-2l-2 4-9 8-4 1v-5l7-10 9-11 4-1 1-3h2l2-4 5-3 9-5z" fill="#3D949F"/>
<path transform="translate(1263,1332)" d="m0 0m-7 1h7v2l-8 2v30l-3 16-7 13-9 11-8 8-8 5-7 4-5-1-1-3 2-9 6-16 2-7 5-10 4-9 4-8 2-8-3-3v-2l5 2 3 3-3 5-3 9-5 7-3 11-4 5-3 11-3 10-2 3-1 7h4v-2l12-6 6-6h2l2-4 4-6 9-15 2-11v-34l2-3z" fill="#5FB7C1"/>
<path transform="translate(1342,1188)" d="m0 0h2l-1 6-11 33-13 43-4 22-3 4-5-1-2-1h-8-3l5-18 4-16 5-12 4-9 6-14 4-7 10-16 7-10zm-5 10-14 21-5 11-9 19-7 21-4 16 1 5 12 3 3-9 3-13 8-28 12-36 1-10z" fill="#2A8EA2"/>
<path transform="translate(1210,929)" d="m0 0 5 5 4 6 10 14 24 34 7 10 9 13 8 11 21 30 11 15 9 13 24 34v3l-11-13-12-18-8-11-10-14-3-5-4-4-3-5-9-13-7-10-11-16-6-8v-3h-2l-8-12-6-8-20-28v-2h-2l-4-6-6-10z" fill="#5FB7C1"/>
<path transform="translate(1070,1448)" d="m0 0h5l-1 7-5 9-7 9-7 6-14 8-4 2h18l10-2 15-2 22-5 15-4 18-6 8-2h5l1 2-17 4-21 7-30 7-27 4h-26v-2l14-6 5-3h2l1-3 12-8 2-4h2l2-6 4-6 1-4z" fill="#3A9AAB"/>
<path transform="translate(805,1455)" d="m0 0 9 3 8 4 38 5 4 2 14 3 16 3 15 3 21 1h49v1l-19 2h-39l-25-3-10-3-12-2-6-2-10-2-12-2-18-2-13-3-8-4z" fill="#2E8FA2"/>
<path transform="translate(889,1346)" d="m0 0 5 2 7 9 18 10 3 6-2 4-3 1-5-4-4-5-8-4-1-3-7-1-3-6-3-3 1-5z" fill="#FEFEFE"/>
<path transform="translate(1109,804)" d="m0 0 12 6 9 7 7 7 7 10 13 18 13 19 11 15 7 10 12 17 10 14v2h-2l-4-6-8-11-4-6-16-22-8-12-6-8-7-10-10-14-7-10-7-9-13-10-6-3-3-2z" fill="#5FB7C1"/>
<path transform="translate(732,1368)" d="m0 0 8 1 16 6 1 2-9-3-11-4-2 6v10l5 8 4 8 8 12 8 11 5 6 9 5 16 10-3 1-14-8-10-5-4-7-5-5-12-18-10-19-1-4v-8z" fill="#3193A6"/>
<path transform="translate(922,1034)" d="m0 0h1v130l1 15 2 6 2 2h5l2-2 3 1-3 3h-8l-5-5-1-14-1-37v-29z" fill="#5FB7C1"/>
<path transform="translate(610,1262)" d="m0 0 14 1 15 3v1h-8l-11-1h-10l21 21 7 8 19 19-3 1-19-19-7-8-16-16-6-8z" fill="#3A99AA"/>
<path transform="translate(1070,1448)" d="m0 0h5l-1 7-5 9-7 9-7 6-14 8-4 2h18l8-1-4 2-5 2h-26v-2l14-6 5-3h2l1-3 12-8 2-4h2l2-6 4-6 1-4z" fill="#3090A1"/>
<path transform="translate(1181,1417)" d="m0 0 2 4v3h2v7l-4 4-4 14-6 10-3 7-5 3h-15v-2l17-1 2-7 6-9 5-15 2-7z" fill="#3692A1"/>
<path transform="translate(856,1323)" d="m0 0 4 4 2 5-4-3v-3l-12 1-14 4-26 5-16 4-4-1v-4l13-4 10-2 4 1-24 6h-2v2l13-3 23-5 15-3z" fill="#4FAAB7"/>
<path transform="translate(1330,1228)" d="m0 0 1 3-6 19-6 20-4 22-3 4-5-1-2-1h-8-3l2-6 1 4h10l4 1 3-11 2-10 8-28 5-15z" fill="#2E8FA2"/>
<path transform="translate(1104,833)" d="m0 0h1l-1 8-6 15-3 5-4 4-2 5h-2l-1 5-3 6-2 9h-1l-1 6h-1l-1-21 3 3 1-4 5-5 3-6 2-1 5-9 3-8 3-5z" fill="#4298A2"/>
<path transform="translate(805,1455)" d="m0 0 9 3 8 4 38 5 3 4-9-2-21-2-18-4-8-4z" fill="#44A1AF"/>
<path transform="translate(931,870)" d="m0 0h1v26l-1 12h-1l-1-17-1 4h-2v-6l1-4-2 4-1-3 6-15z" fill="#4AA4B0"/>
<path transform="translate(1189,1369)" d="m0 0 1 3-5 14-3 14-1 24-2-4v-17l3-18 5-12z" fill="#2D8FA2"/>
<path transform="translate(1104,833)" d="m0 0h1l-1 8-6 15-3 5-4 4-2 5-3-1 3-6 2-1 5-9 3-8 3-5z" fill="#3F959F"/>
<path transform="translate(1240,1325)" d="m0 0 3 3-6 8-1-3v-2l-4 2-5-1-8-2v-1h7l6 1z" fill="#3F959F"/>
<path transform="translate(1058,1488)" d="m0 0h5l-4 2-5 2h-26v-2l7-1h20z" fill="#3495A6"/>
<path transform="translate(1058,893)" d="m0 0 2 4-6 1-1 3-5 3-7-1-1 2 1-5 7-2z" fill="#3F959F"/>
<path transform="translate(610,1262)" d="m0 0 14 1 15 3v1h-8l-11-1h-10l-1 2-3-4z" fill="#3190A1"/>
<path transform="translate(1171,1454)" d="m0 0 1 4-2 2-2 6-5 3h-15v-2l17-1 2-7z" fill="#2A8EA3"/>
<path transform="translate(1241,1334)" d="m0 0 1 3-5 10-4 1-2-4 6-6h2z" fill="#0B4F45"/>
<path transform="translate(610,1267)" d="m0 0 3 1 4 6 8 7 4 4-1 3-16-16-3-4z" fill="#3D9CAC"/>
<path transform="translate(1105,805)" d="m0 0 6 1 1 2h-4l1 5-2 3-1 15h-1l-1-20-1-3z" fill="#3F959F"/>
<path transform="translate(732,1368)" d="m0 0 8 1 16 6 1 2-9-3-11-4-2 6-3 2z" fill="#2D8FA2"/>
<path transform="translate(1353,1267)" d="m0 0 1 4-5 11-6 9 4 1-7 2 1-5 5-6 5-11z" fill="#3F959F"/>
<path transform="translate(934,853)" d="m0 0 2 2-2 4-2 7-3 8h-1l1-12 4-8z" fill="#FDFEFE"/>
<path transform="translate(1143,1468)" d="m0 0h5l1 2-17 4-7 2 1-3 9-3z" fill="#3B9BAC"/>
<path transform="translate(732,1369)" d="m0 0h1v8h1l1 9 4 6-1 4-6-11-1-4v-8z" fill="#42A1B0"/>
<path transform="translate(779,1382)" d="m0 0 4 2 11 7v3l-5-1-7-4 2-2z" fill="#3796A7"/>
<path transform="translate(1215,1334)" d="m0 0 7 1v3l-10 7-4 1 1-3 6-4 2-3z" fill="#2E8FA2"/>
<path transform="translate(1323,1216)" d="m0 0 1 3-10 22-3 1 2-5 5-12 4-7z" fill="#3090A1"/>
<path transform="translate(838,1465)" d="m0 0h8l14 2 3 4-9-2-16-3z" fill="#3999AB"/>
<path transform="translate(598,1254)" d="m0 0 5 5 5 2-1 4 2 3-4-2-7-8z" fill="#4AA1AB"/>
<path transform="translate(902,864)" d="m0 0 5 1 1 5h2v5l-5-3-3-6z" fill="#3F959F"/>
<path transform="translate(893,802)" d="m0 0h4v4l-6 3v-4l-3 1h-7v-1z" fill="#3F959F"/>
<path transform="translate(756,1421)" d="m0 0 5 5 5 7 7 4-3 1-8-5-3-6-3-2z" fill="#3894A2"/>
<path transform="translate(1278,1303)" d="m0 0 2 3 6 16-1 4-2-4-5-11z" fill="#3F959F"/>
<path transform="translate(1335,1198)" d="m0 0 2 1-7 11-5 8-1-3 8-13z" fill="#298EA3"/>
<path transform="translate(657,1315)" d="m0 0 7 6 13 5-3 1-14-5-3-4z" fill="#2C8FA2"/>
<path transform="translate(1296,1288)" d="m0 0 1 4h10l4 1 3-1-2 4-5-1-2-1h-8-3z" fill="#3692A0"/>
<path transform="translate(930,640)" d="m0 0 4 2 2 5 9 12-1 2-7-9-4-5-3-5z" fill="#3F959F"/>
<path transform="translate(1178,1439)" d="m0 0 1 3-3 9-3 5-1-4 3-7 1-5z" fill="#3E9CAC"/>
<path transform="translate(723,1310)" d="m0 0 4 2 11 9 4 5-4-2-11-9z" fill="#2C8FA2"/>
<path transform="translate(1065,1487)" d="m0 0h16v1l-19 3-4-1z" fill="#419EAD"/>
<path transform="translate(890,809)" d="m0 0h1l1 8-3 11h-1v-16z" fill="#3F959F"/>
<path transform="translate(1535,745)" d="m0 0 3 1v8h-2l-3-3v-5z" fill="#238CA4"/>
<path transform="translate(959,522)" d="m0 0 2 1-7 7-5 3-5 4 2-4 8-7z" fill="#3B939F"/>
<path transform="translate(1314,1202)" d="m0 0 2 1-5 6-5 1-2 5-2-1 3-6 6-3z" fill="#3F959F"/>
<path transform="translate(1555,1055)" d="m0 0 4 1-1 6-3-1-1 2-2-2z" fill="#3F959F"/>
<path transform="translate(959,902)" d="m0 0 10 1 4 4-9-1z" fill="#3F959F"/>
<path transform="translate(1198,1358)" d="m0 0 1 3-3 3h-2l-2 6-2 1v-5l5-5z" fill="#3792A0"/>
<path transform="translate(610,1262)" d="m0 0h2v2h9l-1 2h-10l-1 2-3-4z" fill="#228CA4"/>
<path transform="translate(621,1254)" d="m0 0h5l-3 2-9 5h-5l3-2 3-1 2-3z" fill="#3F959F"/>
<path transform="translate(856,1323)" d="m0 0 4 4 2 5-4-3v-3h-9l1-2z" fill="#46A3B2"/>
<path transform="translate(690,1287)" d="m0 0 5 2 11 7 1 2-5-2-11-7z" fill="#2B8EA2"/>
<path transform="translate(1123,1474)" d="m0 0 3 1-8 4h-8v-1z" fill="#3194A7"/>
<path transform="translate(1534,1335)" d="m0 0 5 2v2l-5 3-2-5z" fill="#1F8BA5"/>
<path transform="translate(946,897)" d="m0 0 10 3 3 2-13-1z" fill="#3F959F"/>
<path transform="translate(739,1394)" d="m0 0 2 2 3 6 2 3-1 3-5-7z" fill="#3899AA"/>
<path transform="translate(1305,1256)" d="m0 0h1l-1 7-3 8-1-4z" fill="#3291A1"/>
</svg>
